<svg xmlns="http://www.w3.org/2000/svg" width="512" height="512" viewBox="0 0 512 512">
  <defs>
    <style>
      .cls-1 {
        fill: #fff;
        fill-rule: evenodd;
      }
    </style>
  </defs>
  <path id="AP." class="cls-1" d="M165.341,135.654a9.984,9.984,0,0,0-2.041-3.432,8.318,8.318,0,0,0-3.711-2.134,29.27,29.27,0,0,0-6.309-1.021q-3.9-.278-9.834-0.278-5.566,0-9.184.278a26.739,26.739,0,0,0-5.938,1.021,8.069,8.069,0,0,0-3.525,2.041,9.663,9.663,0,0,0-1.948,3.34L42.323,358.5a22.859,22.859,0,0,0-1.577,6.587,4.69,4.69,0,0,0,1.3,3.8,8.846,8.846,0,0,0,4.824,1.762,68.3,68.3,0,0,0,8.813.464,77.432,77.432,0,0,0,8.442-.371,16.52,16.52,0,0,0,5.01-1.206,7.2,7.2,0,0,0,2.69-2.041,9.723,9.723,0,0,0,1.484-2.876l19.668-57.705H192.8l20.6,58.447a14.284,14.284,0,0,0,1.578,2.784,5.5,5.5,0,0,0,2.6,1.762,20.784,20.784,0,0,0,5.2.928q3.431,0.279,9.184.278a89.785,89.785,0,0,0,9.185-.371,8.972,8.972,0,0,0,4.917-1.67,4.548,4.548,0,0,0,1.391-3.8,23.013,23.013,0,0,0-1.577-6.587Zm19.111,145.84h-83.5l41.377-119.678h0.186Zm245.2-106.04A61.92,61.92,0,0,0,418.8,155.693a62.824,62.824,0,0,0-17.163-14.38,69.623,69.623,0,0,0-19.854-7.978,140.442,140.442,0,0,0-16.885-2.783q-7.145-.648-14.936-0.65h-51.4a13.51,13.51,0,0,0-8.72,3.155q-3.9,3.156-3.9,10.576V365.176a4.566,4.566,0,0,0,.742,2.6,4.938,4.938,0,0,0,2.6,1.763,27.951,27.951,0,0,0,4.917,1.113,64.13,64.13,0,0,0,15.4,0,25.519,25.519,0,0,0,4.824-1.113,5.513,5.513,0,0,0,2.6-1.763,4.2,4.2,0,0,0,.835-2.6V278.711h27.276q22.264,0,38.315-5.566a76,76,0,0,0,27.09-15.772A68.6,68.6,0,0,0,427.519,232.7a84.861,84.861,0,0,0,5.937-32.47A76.87,76.87,0,0,0,429.652,175.454Zm-33.12,47.315A43.112,43.112,0,0,1,386.7,238.54a45.105,45.105,0,0,1-16.05,10.3q-9.558,3.714-24.028,3.711H317.86v-96.3h29.5a113.022,113.022,0,0,1,16.792,1.3,45.64,45.64,0,0,1,16.7,6.123q8.07,4.827,13.544,14.658t5.474,24.492A57.932,57.932,0,0,1,396.532,222.769Zm69.024,109.936q-4.27-4.266-15.4-4.267-11.506,0-15.864,4.36t-4.36,17.534q0,12.8,4.267,17.07t15.4,4.268q11.5,0,15.864-4.36t4.36-17.535Q469.823,336.973,465.556,332.705Z"/>
</svg>
