<svg width="22" height="22" viewBox="0 0 18 22" fill="#1e2a2e" xmlns="http://www.w3.org/2000/svg">
    <path d="M5.17676 9.74623L10.6037 0.101562L12.5661 3.22383L6.95836 13.0655L5.17676 9.74623Z" />
    <path d="M10.6064 0.11377L13.8847 0.115768L18.0866 6.49175H14.6263L10.6064 0.11377Z" />
    <path d="M14.6259 6.49121L9.0127 16.1888L10.6453 19.3014L18.0866 6.49121H14.6259Z" />
    <path d="M4.10449 13.9985L8.0877 14.3283L10.648 19.2951L8.8154 22.0001L4.10449 13.9985Z" />
    <path
        d="M0 6.42889L3.40968 6.42789L0 6.42889ZM3.56483 0L6.73659 0.000333083L3.39572 6.42622L0.0120092 6.42922L3.56483 0Z" />
    <path
        d="M0 6.42913L3.40935 6.42647L0 6.42913ZM3.3954 6.4248L6.95925 13.066L3.44116 13.0673L0.0120092 6.42913L3.3954 6.4248Z" />
</svg>